<?xml version="1.0" encoding="UTF-8" standalone="no"?>
<!-- Created with Inkscape (http://www.inkscape.org/) -->

<svg
   xmlns:dc="http://purl.org/dc/elements/1.1/"
   xmlns:cc="http://creativecommons.org/ns#"
   xmlns:rdf="http://www.w3.org/1999/02/22-rdf-syntax-ns#"
   xmlns:svg="http://www.w3.org/2000/svg"
   xmlns="http://www.w3.org/2000/svg"
   xmlns:sodipodi="http://sodipodi.sourceforge.net/DTD/sodipodi-0.dtd"
   xmlns:inkscape="http://www.inkscape.org/namespaces/inkscape"
   width="210mm"
   height="297mm"
   viewBox="0 0 210 297"
   version="1.1"
   id="svg8"
   sodipodi:docname="logo.svg"
   inkscape:version="0.92.4 (5da689c313, 2019-01-14)">
  <defs
     id="defs2" />
  <sodipodi:namedview
     id="base"
     pagecolor="#ffffff"
     bordercolor="#666666"
     borderopacity="1.0"
     inkscape:pageopacity="0.0"
     inkscape:pageshadow="2"
     inkscape:zoom="0.35"
     inkscape:cx="-70"
     inkscape:cy="674.28571"
     inkscape:document-units="mm"
     inkscape:current-layer="layer1"
     showgrid="false"
     inkscape:window-width="1920"
     inkscape:window-height="1001"
     inkscape:window-x="2391"
     inkscape:window-y="1304"
     inkscape:window-maximized="1" />
  <metadata
     id="metadata5">
    <rdf:RDF>
      <cc:Work
         rdf:about="">
        <dc:format>image/svg+xml</dc:format>
        <dc:type
           rdf:resource="http://purl.org/dc/dcmitype/StillImage" />
        <dc:title></dc:title>
      </cc:Work>
    </rdf:RDF>
  </metadata>
  <g
     inkscape:label="Calque 1"
     inkscape:groupmode="layer"
     id="layer1">
    <path
       style="fill:#ececec;stroke-width:0.26458332"
       id="path4668"
       d="m 72.041442,69.319401 c -1.745271,3.336126 -3.350212,6.732323 -5.292185,9.963036 -3.085629,4.518615 -6.212763,8.990372 -9.102256,13.638892 -2.678404,4.330356 -5.066906,8.822531 -7.520274,13.279781 -2.420138,4.46673 -4.96217,8.86612 -7.593393,13.21145 -2.797455,4.37396 -5.976443,8.48253 -8.851961,12.80296 -0.660715,1.60517 -2.491308,3.05236 -2.595996,4.90154 -0.179364,3.16826 3.148589,8.63024 4.427582,11.16608 7.667451,13.77481 16.517358,26.84701 25.632926,39.69369 5.417113,7.40198 11.048,14.64085 16.93291,21.67574 2.953147,3.39677 6.050438,6.65156 8.915119,10.125 1.390925,1.68385 0.710099,0.86726 2.041329,2.45072 0,0 -9.510403,5.70329 -9.510403,5.70329 v 0 c -1.302728,-1.61098 -0.637418,-0.78191 -1.994926,-2.48802 -2.806967,-3.50977 -5.899878,-6.75913 -8.782883,-10.20479 C 63.07815,208.03524 57.775855,200.55639 52.442064,193.10374 43.462871,180.1065 34.696765,166.95454 26.497772,153.4481 c -1.499089,-2.66021 -5.199771,-8.30468 -5.388525,-11.59595 -0.118155,-2.06025 1.774617,-3.54253 2.553373,-5.24963 2.855652,-4.33029 6.027736,-8.43505 8.87987,-12.76883 2.643338,-4.33064 5.214353,-8.70723 7.618471,-13.17595 2.497195,-4.45094 4.815985,-9.00174 7.517273,-13.339245 2.90178,-4.626832 5.90955,-9.166566 9.07488,-13.619016 1.967722,-3.122608 3.552452,-6.438384 5.041566,-9.812457 0,0 10.246762,-4.567621 10.246762,-4.567621 z"
       inkscape:connector-curvature="0" />
    <path
       style="fill:#ececec;stroke-width:0.26458332"
       id="path4670"
       d="m 146.0375,77.241145 c 3.14877,3.897757 6.31355,7.779157 9.42403,11.710567 4.17065,4.88665 8.27421,9.816234 12.21229,14.893438 3.46264,4.21558 6.49919,8.75003 9.74284,13.13064 2.66678,3.73809 5.54281,7.32027 8.2204,11.04946 1.93725,2.8108 4.01196,5.51104 6.11876,8.19461 1.79733,2.12642 3.72767,4.12641 5.68618,6.1035 2.5946,2.90374 5.75812,5.36967 7.95883,8.60065 0.97219,1.7791 0.22857,3.26536 -0.63235,4.90868 -0.80061,1.52821 -0.91361,1.68743 -1.79817,3.22327 -2.67189,4.3685 -5.6324,8.54925 -8.42996,12.83708 -2.92819,4.30583 -5.35835,8.90049 -7.82016,13.47838 -2.04634,3.862 -4.10261,7.71982 -5.97564,11.66956 -1.1918,3.18257 -2.40989,6.33002 -3.98951,9.34147 -1.18587,1.88462 -1.97985,3.95241 -2.74278,6.03292 -0.64134,1.82966 -1.18819,3.68354 -1.70655,5.55011 -0.51183,1.25574 -0.72037,2.58023 -0.9504,3.90543 0,0 -10.12913,4.86086 -10.12913,4.86086 v 0 c 0.42228,-1.29691 0.30141,-2.74525 0.93286,-3.99803 0.70656,-1.81473 1.01912,-3.79061 1.75852,-5.60341 0.73818,-2.12553 1.4258,-4.30394 2.68518,-6.18865 1.63993,-3.00369 3.10953,-6.06441 4.13987,-9.3433 1.83788,-3.99533 3.94417,-7.85623 5.98605,-11.74972 2.53751,-4.58129 4.88464,-9.2705 7.86843,-13.59091 2.74971,-4.25284 5.62831,-8.41997 8.30038,-12.72226 0.85897,-1.4547 1.63345,-2.94147 2.44887,-4.41998 0.22542,-0.40872 0.74389,-1.14522 0.7241,-1.69798 -0.0109,-0.304 -0.17092,-0.58388 -0.25639,-0.87582 -2.08929,-3.20875 -5.13037,-5.70919 -7.7714,-8.44594 -2.05507,-1.95935 -4.06754,-3.94928 -5.80153,-6.20702 -2.08861,-2.71262 -4.187,-5.40957 -6.08603,-8.26287 -2.67386,-3.72169 -5.41396,-7.39526 -8.1213,-11.09261 -3.21679,-4.38751 -6.27119,-8.89407 -9.67269,-13.14356 -3.91483,-5.0888 -7.97182,-10.04983 -12.20216,-14.880367 -3.15227,-3.927047 -6.324,-7.827008 -9.7162,-11.551412 0,0 9.59476,-5.716786 9.59476,-5.716786 z"
       inkscape:connector-curvature="0" />
    <path
       style="fill:#ececec;stroke-width:0.26458332"
       id="path4672"
       d="m 81.407528,112.17438 c 0.423643,2.39013 1.114182,4.7568 1.954517,7.03538 0.84206,2.40488 2.084207,4.63029 3.043629,6.98593 0.984025,2.97289 2.06362,5.90771 3.15903,8.84106 1.540158,3.80668 2.756434,7.71579 3.966651,11.63518 1.246058,4.18269 2.764745,8.27511 4.134271,12.41719 1.353259,4.24028 2.895874,8.4167 4.243994,12.65854 0.74693,2.36136 1.7254,4.63194 2.93071,6.79125 0.92329,1.32285 1.48673,2.82775 2.13226,4.2922 1.05775,1.65125 1.5656,3.52527 2.15139,5.37899 0.48591,1.75536 0.94918,3.51542 1.4474,5.2676 0,0 -9.78165,5.32087 -9.78165,5.32087 v 0 c -0.46786,-1.74354 -0.915442,-3.49154 -1.407302,-5.22801 -0.618942,-1.80594 -1.1328,-3.63155 -2.198608,-5.23649 -0.614572,-1.44282 -1.140098,-2.9259 -2.037906,-4.22862 -1.204356,-2.25308 -2.208638,-4.59987 -2.913223,-7.06209 -1.237359,-4.27144 -2.801393,-8.43495 -4.164156,-12.66689 -1.403929,-4.13771 -2.913295,-8.24041 -4.174733,-12.4255 -1.197211,-3.89608 -2.40787,-7.77943 -3.982075,-11.5451 -1.12768,-2.90841 -2.245188,-5.81817 -3.188258,-8.79333 -0.97128,-2.36204 -2.289397,-4.56584 -3.096445,-6.99805 -0.880464,-2.35295 -1.514144,-4.79564 -2.151324,-7.22302 0,0 9.931828,-5.21709 9.931828,-5.21709 z"
       inkscape:connector-curvature="0" />
    <path
       style="fill:#ececec;stroke-width:0.26458332"
       id="path4674"
       d="m 96.736087,152.64491 c 2.310889,0.87247 4.516413,1.97601 6.702873,3.11545 1.94643,1.0268 3.8292,2.11985 5.69165,3.29017 2.05443,1.20767 3.99064,2.58031 5.92225,3.97223 2.62069,1.53777 4.94879,3.49163 7.31109,5.38713 1.66856,1.60984 3.71177,2.83329 5.3154,4.50325 1.6983,1.36463 3.34254,2.8045 4.97414,4.25939 4.20317,4.07405 8.37316,8.192 12.76897,12.05971 0,0 -9.30837,5.76486 -9.30837,5.76486 v 0 c -4.25977,-4.00574 -8.38262,-8.15877 -12.7887,-12.00815 -1.73047,-1.42028 -3.58442,-2.70214 -5.21401,-4.23305 -1.57965,-1.6118 -3.47259,-2.92213 -5.12229,-4.46129 -2.35806,-1.90377 -4.72796,-3.78035 -7.3743,-5.27956 -1.89824,-1.37866 -3.78181,-2.77081 -5.821771,-3.93942 -1.866654,-1.13137 -3.794704,-2.12879 -5.69345,-3.20383 -2.119505,-1.15019 -4.297616,-2.22882 -6.629233,-2.8812 0,0 9.265751,-6.34569 9.265751,-6.34569 z"
       inkscape:connector-curvature="0" />
    <path
       style="fill:#ececec;stroke-width:0.26458332"
       id="path4688"
       d="m 94.846888,158.90965 c 0.693682,-4.13505 1.792507,-8.18426 2.940491,-12.21176 1.212115,-4.40821 2.864611,-8.67266 4.331781,-12.9969 0.94659,-3.63137 2.25785,-6.46689 4.63725,-9.35024 1.52709,-1.78234 3.36197,-3.24799 4.97358,-4.94739 0.82156,-0.80831 1.63253,-1.62052 2.38627,-2.49261 0,0 10.30672,-4.37806 10.30672,-4.37806 v 0 c -0.73593,0.91252 -1.46775,1.81478 -2.36393,2.58012 -0.9256,0.91396 -0.46158,0.42471 -1.38456,1.47481 -1.17624,1.20332 -2.6108,2.13771 -3.69225,3.44338 -2.63452,2.87833 -3.93133,5.15463 -4.91151,9.00091 -1.4536,4.32954 -3.17963,8.56873 -4.40462,12.97468 -1.12786,3.92283 -2.26079,7.87294 -2.76072,11.93457 0,0 -10.058502,4.96849 -10.058502,4.96849 z"
       inkscape:connector-curvature="0" />
  </g>
</svg>
